<svg width="26" height="26" viewBox="0 0 26 26" fill="none" xmlns="http://www.w3.org/2000/svg">
<path d="M1.80554 6.13889H24.1944V19.8611H1.80554V6.13889Z" fill="white"/>
<path d="M1.80554 6.13889H24.1944V7.94444H1.80554V6.13889ZM1.80554 9.38889H24.1944V10.8333H1.80554V9.38889ZM1.80554 12.2778H24.1944V13.7222H1.80554V12.2778Z" fill="#D22F27"/>
<path d="M1.80554 6.13889H13.3611V13.7222H1.80554V6.13889Z" fill="#1E50A0"/>
<path d="M1.80554 15.1667H24.1944V16.6111H1.80554V15.1667Z" fill="#D22F27"/>
<path d="M3.43053 8.57639C3.77954 8.57639 4.06247 8.29346 4.06247 7.94444C4.06247 7.59543 3.77954 7.3125 3.43053 7.3125C3.08152 7.3125 2.79858 7.59543 2.79858 7.94444C2.79858 8.29346 3.08152 8.57639 3.43053 8.57639Z" fill="white"/>
<path d="M6.31944 8.57639C6.66846 8.57639 6.95139 8.29346 6.95139 7.94444C6.95139 7.59543 6.66846 7.3125 6.31944 7.3125C5.97043 7.3125 5.6875 7.59543 5.6875 7.94444C5.6875 8.29346 5.97043 8.57639 6.31944 8.57639Z" fill="white"/>
<path d="M9.20836 8.57639C9.55737 8.57639 9.8403 8.29346 9.8403 7.94444C9.8403 7.59543 9.55737 7.3125 9.20836 7.3125C8.85935 7.3125 8.57642 7.59543 8.57642 7.94444C8.57642 8.29346 8.85935 8.57639 9.20836 8.57639Z" fill="white"/>
<path d="M12.0972 8.57639C12.4462 8.57639 12.7292 8.29346 12.7292 7.94444C12.7292 7.59543 12.4462 7.3125 12.0972 7.3125C11.7482 7.3125 11.4653 7.59543 11.4653 7.94444C11.4653 8.29346 11.7482 8.57639 12.0972 8.57639Z" fill="white"/>
<path d="M10.6528 10.0208C11.0018 10.0208 11.2847 9.7379 11.2847 9.38889C11.2847 9.03987 11.0018 8.75694 10.6528 8.75694C10.3037 8.75694 10.0208 9.03987 10.0208 9.38889C10.0208 9.7379 10.3037 10.0208 10.6528 10.0208Z" fill="white"/>
<path d="M7.7639 10.0208C8.11292 10.0208 8.39585 9.7379 8.39585 9.38889C8.39585 9.03987 8.11292 8.75694 7.7639 8.75694C7.41489 8.75694 7.13196 9.03987 7.13196 9.38889C7.13196 9.7379 7.41489 10.0208 7.7639 10.0208Z" fill="white"/>
<path d="M4.87499 10.0208C5.224 10.0208 5.50693 9.7379 5.50693 9.38889C5.50693 9.03987 5.224 8.75694 4.87499 8.75694C4.52597 8.75694 4.24304 9.03987 4.24304 9.38889C4.24304 9.7379 4.52597 10.0208 4.87499 10.0208Z" fill="white"/>
<path d="M3.43053 11.4653C3.77954 11.4653 4.06247 11.1823 4.06247 10.8333C4.06247 10.4843 3.77954 10.2014 3.43053 10.2014C3.08152 10.2014 2.79858 10.4843 2.79858 10.8333C2.79858 11.1823 3.08152 11.4653 3.43053 11.4653Z" fill="white"/>
<path d="M6.31944 11.4653C6.66846 11.4653 6.95139 11.1823 6.95139 10.8333C6.95139 10.4843 6.66846 10.2014 6.31944 10.2014C5.97043 10.2014 5.6875 10.4843 5.6875 10.8333C5.6875 11.1823 5.97043 11.4653 6.31944 11.4653Z" fill="white"/>
<path d="M9.20836 11.4653C9.55737 11.4653 9.8403 11.1823 9.8403 10.8333C9.8403 10.4843 9.55737 10.2014 9.20836 10.2014C8.85935 10.2014 8.57642 10.4843 8.57642 10.8333C8.57642 11.1823 8.85935 11.4653 9.20836 11.4653Z" fill="white"/>
<path d="M12.0972 11.4653C12.4462 11.4653 12.7292 11.1823 12.7292 10.8333C12.7292 10.4843 12.4462 10.2014 12.0972 10.2014C11.7482 10.2014 11.4653 10.4843 11.4653 10.8333C11.4653 11.1823 11.7482 11.4653 12.0972 11.4653Z" fill="white"/>
<path d="M10.6528 12.9097C11.0018 12.9097 11.2847 12.6268 11.2847 12.2778C11.2847 11.9288 11.0018 11.6458 10.6528 11.6458C10.3037 11.6458 10.0208 11.9288 10.0208 12.2778C10.0208 12.6268 10.3037 12.9097 10.6528 12.9097Z" fill="white"/>
<path d="M7.7639 12.9097C8.11292 12.9097 8.39585 12.6268 8.39585 12.2778C8.39585 11.9288 8.11292 11.6458 7.7639 11.6458C7.41489 11.6458 7.13196 11.9288 7.13196 12.2778C7.13196 12.6268 7.41489 12.9097 7.7639 12.9097Z" fill="white"/>
<path d="M4.87499 12.9097C5.224 12.9097 5.50693 12.6268 5.50693 12.2778C5.50693 11.9288 5.224 11.6458 4.87499 11.6458C4.52597 11.6458 4.24304 11.9288 4.24304 12.2778C4.24304 12.6268 4.52597 12.9097 4.87499 12.9097Z" fill="white"/>
<path d="M1.80554 18.0556H24.1944V19.8611H1.80554V18.0556Z" fill="#D22F27"/>
<path d="M1.80554 6.13889H24.1944V19.8611H1.80554V6.13889Z" stroke="black" stroke-width="0.5" stroke-linecap="round" stroke-linejoin="round"/>
</svg>
